<svg width="926" height="285" viewBox="0 0 926 285" fill="none" xmlns="http://www.w3.org/2000/svg">
<g clip-path="url(#clip0_483_454)">
<path d="M333.14 53.1404V61.2404C327.49 58.4704 322.3 57.0904 317.56 57.0904C311.48 57.0904 306.35 59.0504 302.18 62.9804C298.01 66.9104 295.93 71.7304 295.93 77.4604C295.93 83.1904 298.06 88.1604 302.32 92.0604C306.58 95.9604 311.92 97.9104 318.33 97.9104C322.99 97.9104 327.92 96.4404 333.13 93.5104V101.69C328.39 104.21 323.25 105.47 317.71 105.47C309.6 105.47 302.66 102.72 296.91 97.2304C291.16 91.7404 288.28 85.1204 288.28 77.3704C288.28 69.6204 291.11 63.2404 296.77 57.8204C302.43 52.4004 309.25 49.6904 317.22 49.6904C322.34 49.6904 327.65 50.8404 333.13 53.1404H333.14Z" fill="#1C1C1A"/>
<path d="M341.07 51.3306H370.09V58.4806H348.14V71.5506H370.09V78.6206H348.14V96.6306H370.09V103.701H341.07V51.3306Z" fill="#1C1C1A"/>
<path d="M378.12 49.2305L416.85 89.0405V51.3305H424V106.13L385.28 66.5005V103.7H378.13V49.2305H378.12Z" fill="#1C1C1A"/>
<path d="M431.48 51.3306H463.5V58.4806H451V103.701H443.93V58.4806H431.47V51.3306H431.48Z" fill="#1C1C1A"/>
<path d="M472.67 51.3306H484.02C489.67 51.3306 494.26 52.7306 497.81 55.5406C501.36 58.3506 503.13 61.9406 503.13 66.3306C503.13 69.8406 501.98 72.9306 499.69 75.6206C497.4 78.3106 493.81 80.2006 488.95 81.2906L504.16 103.701H495.95L481.42 82.1606H479.82V103.701H472.67V51.3306ZM479.82 57.6606V75.9106C490.37 76.1306 495.65 73.0706 495.65 66.7406C495.65 64.5206 495.03 62.7006 493.8 61.2906C492.57 59.8806 490.92 58.9206 488.87 58.4106C486.82 57.9006 483.8 57.6506 479.83 57.6506L479.82 57.6606Z" fill="#1C1C1A"/>
<path d="M511.48 77.2104C511.48 69.6504 514.33 63.1704 520.03 57.7804C525.73 52.3804 532.58 49.6904 540.58 49.6904C548.58 49.6904 555.12 52.4104 560.76 57.8404C566.4 63.2704 569.23 69.7304 569.23 77.2104C569.23 85.1204 566.44 91.8104 560.86 97.2804C555.28 102.74 548.44 105.47 540.32 105.47C532.2 105.47 525.51 102.72 519.89 97.2104C514.27 91.7004 511.46 85.0404 511.46 77.2004L511.48 77.2104ZM561.63 77.5404C561.63 71.7604 559.55 66.9004 555.38 62.9404C551.21 58.9804 546.09 57.0104 540 57.0104C533.91 57.0104 529.26 59.0204 525.14 63.0504C521.02 67.0704 518.95 71.9104 518.95 77.5504C518.95 83.1904 521.07 88.1104 525.3 92.0704C529.53 96.0304 534.72 98.0004 540.86 98.0004C546.51 98.0004 551.38 95.9804 555.47 91.9404C559.57 87.9004 561.62 83.1004 561.62 77.5404H561.63Z" fill="#1C1C1A"/>
<path d="M591.89 69.5005H600.19C606.76 69.5005 611.65 71.2405 614.85 74.7105C618.05 78.1805 619.66 82.1505 619.66 86.6005C619.66 91.0505 618 95.0705 614.69 98.5205C611.38 101.97 606.56 103.7 600.25 103.7H591.9V69.5005H591.89ZM596.56 74.0605V99.0805H596.83C600.3 99.0805 602.92 98.9205 604.67 98.6105C606.42 98.3005 608.09 97.6105 609.66 96.5605C611.23 95.5005 612.49 94.1005 613.42 92.3605C614.35 90.6105 614.82 88.6905 614.82 86.6005C614.82 83.9705 614.08 81.5905 612.59 79.4605C611.1 77.3305 609.33 75.9005 607.26 75.1605C605.19 74.4205 602.41 74.0605 598.92 74.0605H596.56Z" fill="#1C1C1A"/>
<path d="M624.68 69.5005H643.63V74.1705H629.29V82.7105H643.63V87.3305H629.29V99.0905H643.63V103.71H624.68V69.5105V69.5005Z" fill="#1C1C1A"/>
<path d="M331.13 117.971V131.131C325.29 127.621 320.18 125.871 315.8 125.871C311.42 125.871 307.91 127.381 305.28 130.391C302.65 133.411 301.33 137.461 301.33 142.561C301.33 147.381 302.71 151.241 305.48 154.131C308.25 157.021 311.95 158.471 316.58 158.471C320.64 158.471 325.49 156.841 331.13 153.581V166.651C324.8 168.761 319.52 169.821 315.3 169.821C308.04 169.821 301.87 167.151 296.8 161.821C291.73 156.491 289.19 149.991 289.19 142.311C289.19 134.631 291.77 127.891 296.94 122.471C302.11 117.061 308.39 114.351 315.79 114.351C320.56 114.351 325.67 115.561 331.12 117.971H331.13Z" fill="#1C1C1A"/>
<path d="M358.62 115.09H367.63L389.62 169.07H377.91L373.59 158.46H352.88L348.65 169.07H337L358.62 115.09ZM363.13 132.77L356.78 148.68H369.61L363.13 132.77Z" fill="#1C1C1A"/>
<path d="M398.05 115.09H416.51C421.47 115.09 425.47 116.54 428.51 119.43C431.55 122.32 433.07 126.12 433.07 130.84C433.07 133.94 432.32 136.88 430.83 139.66C429.34 142.44 427.08 144.52 424.07 145.89C421.06 147.26 418.48 147.97 416.34 148.03L409.6 148.19V169.07H398.05V115.09ZM409.44 124.79V138.6H413.96C415.91 138.6 417.57 137.9 418.95 136.5C420.33 135.1 421.03 133.44 421.03 131.53C421.03 129.34 420.25 127.64 418.69 126.43C417.13 125.22 414.91 124.62 412.03 124.62L409.44 124.78V124.79Z" fill="#1C1C1A"/>
<path d="M455.36 115.09H464.37L486.36 169.07H474.65L470.33 158.46H449.62L445.39 169.07H433.74L455.36 115.09ZM459.86 132.77L453.51 148.68H466.34L459.86 132.77Z" fill="#1C1C1A"/>
<path d="M530.67 117.971V131.131C524.83 127.621 519.72 125.871 515.34 125.871C510.96 125.871 507.45 127.381 504.82 130.391C502.19 133.411 500.87 137.461 500.87 142.561C500.87 147.381 502.25 151.241 505.02 154.131C507.79 157.021 511.49 158.471 516.12 158.471C520.18 158.471 525.03 156.841 530.67 153.581V166.651C524.34 168.761 519.06 169.821 514.84 169.821C507.58 169.821 501.41 167.151 496.34 161.821C491.27 156.491 488.73 149.991 488.73 142.311C488.73 134.631 491.31 127.891 496.48 122.471C501.65 117.061 507.93 114.351 515.33 114.351C520.1 114.351 525.21 115.561 530.66 117.971H530.67Z" fill="#1C1C1A"/>
<path d="M538.85 115.09H550.48V169.07H538.85V115.09Z" fill="#1C1C1A"/>
<path d="M557.6 115.09H593.9V126.56H581.53V169.07H569.9V126.56H557.61V115.09H557.6Z" fill="#1C1C1A"/>
<path d="M614.49 115.09H623.5L645.49 169.07H633.78L629.46 158.46H608.75L604.52 169.07H592.87L614.49 115.09ZM619 132.77L612.65 148.68H625.48L619 132.77Z" fill="#1C1C1A"/>
<path d="M689.81 117.971V131.131C683.97 127.621 678.86 125.871 674.48 125.871C670.1 125.871 666.59 127.381 663.96 130.391C661.33 133.411 660.01 137.461 660.01 142.561C660.01 147.381 661.39 151.241 664.16 154.131C666.93 157.021 670.63 158.471 675.26 158.471C679.32 158.471 684.17 156.841 689.81 153.581V166.651C683.48 168.761 678.2 169.821 673.98 169.821C666.72 169.821 660.55 167.151 655.48 161.821C650.41 156.491 647.87 149.991 647.87 142.311C647.87 134.631 650.45 127.891 655.62 122.471C660.79 117.061 667.07 114.351 674.47 114.351C679.24 114.351 684.35 115.561 689.8 117.971H689.81Z" fill="#1C1C1A"/>
<path d="M697.99 115.09H709.62V169.07H697.99V115.09Z" fill="#1C1C1A"/>
<path d="M718.67 142.06C718.67 134.08 721.31 127.5 726.58 122.31C731.86 117.12 738.11 114.52 745.35 114.52C753.35 114.52 759.97 117.13 765.21 122.35C770.44 127.57 773.06 134.17 773.06 142.14C773.06 150.11 770.47 156.64 765.29 161.87C760.11 167.11 753.59 169.72 745.72 169.72C737.85 169.72 731.38 167.12 726.3 161.91C721.22 156.7 718.67 150.08 718.67 142.05V142.06ZM745.88 125.29C741.36 125.21 737.71 126.77 734.94 129.98C732.17 133.19 730.79 137.32 730.79 142.4C730.79 147.2 732.2 151.17 735.02 154.32C737.84 157.47 741.41 159.05 745.71 159.05C750.23 159.05 753.88 157.49 756.67 154.38C759.45 151.27 760.84 147.17 760.84 142.07C760.84 136.97 759.48 133.03 756.75 129.98C754.02 126.94 750.4 125.38 745.88 125.29ZM739.76 111.48L745.52 99.1904H758.39L747.13 111.48H739.77H739.76Z" fill="#1C1C1A"/>
<path d="M818.44 115.09H829.83V169.07H818.5L793.82 134.13V169.07H782.19V115.09H793.69L818.45 149.79V115.09H818.44Z" fill="#1C1C1A"/>
<path d="M290.22 182.061H319.24V189.211H297.29V202.281H319.24V209.351H297.29V227.361H319.24V234.431H290.22V182.061Z" fill="#1C1C1A"/>
<path d="M371.74 179.88L386.07 234.43H379.06L370.39 201.1L355.46 236.45L340.49 200.81L331.7 234.43H324.73L339.06 179.88L355.46 218.91L371.75 179.88H371.74Z" fill="#1C1C1A"/>
<path d="M395.96 182.06H406.48C412.43 182.06 417.22 183.46 420.87 186.25C424.51 189.04 426.34 192.68 426.34 197.14C426.34 201.6 424.41 205.4 420.56 208.44C416.71 211.48 410.86 212.96 403.03 212.88V234.42H395.96V182.05V182.06ZM403.03 188.31V206.64C408.4 206.59 412.38 205.82 414.97 204.36C417.56 202.89 418.85 200.54 418.85 197.31C418.85 194.87 417.87 192.76 415.91 190.98C413.95 189.2 409.65 188.31 403.02 188.31H403.03Z" fill="#1C1C1A"/>
<path d="M438.32 182.061H449.67C455.32 182.061 459.91 183.461 463.46 186.271C467.01 189.081 468.78 192.681 468.78 197.061C468.78 200.571 467.63 203.661 465.34 206.351C463.04 209.031 459.46 210.931 454.6 212.021L469.81 234.431H461.6L447.07 212.891H445.47V234.431H438.32V182.061ZM445.47 188.391V206.641C456.02 206.861 461.3 203.801 461.3 197.471C461.3 195.251 460.68 193.431 459.45 192.021C458.22 190.611 456.57 189.651 454.52 189.141C452.47 188.631 449.45 188.381 445.48 188.381L445.47 188.391Z" fill="#1C1C1A"/>
<path d="M479.57 182.061H508.59V189.211H486.64V202.281H508.59V209.351H486.64V227.361H508.59V234.431H479.57V182.061Z" fill="#1C1C1A"/>
<path d="M549.85 187.9L544.05 192.54C542.52 190.95 541.13 189.77 539.89 188.98C538.65 188.19 536.85 187.81 534.5 187.81C531.93 187.81 529.84 188.39 528.24 189.55C526.64 190.71 525.84 192.21 525.84 194.04C525.84 195.63 526.54 197.03 527.93 198.24C529.33 199.46 531.71 200.79 535.07 202.23C538.43 203.68 541.05 205.02 542.93 206.27C544.8 207.52 546.34 208.89 547.55 210.4C548.76 211.91 549.65 213.49 550.24 215.16C550.83 216.83 551.12 218.6 551.12 220.46C551.12 224.81 549.54 228.53 546.37 231.59C543.2 234.66 539.37 236.19 534.88 236.19C530.39 236.19 526.62 234.99 523.27 232.59C519.91 230.19 517.33 226.59 515.52 221.8L522.67 219.79C525.27 225.68 529.26 228.63 534.63 228.63C537.23 228.63 539.4 227.85 541.13 226.29C542.86 224.73 543.72 222.77 543.72 220.39C543.72 218.97 543.27 217.54 542.36 216.11C541.45 214.68 540.33 213.49 538.99 212.57C537.65 211.64 535.51 210.57 532.57 209.37C529.64 208.17 527.38 207.07 525.8 206.07C524.22 205.07 522.85 203.88 521.7 202.5C520.54 201.12 519.7 199.74 519.16 198.37C518.62 197 518.36 195.54 518.36 193.97C518.36 190.22 519.87 187.02 522.88 184.38C525.89 181.74 529.55 180.42 533.86 180.42C536.71 180.42 539.6 181.04 542.53 182.27C545.46 183.5 547.9 185.38 549.85 187.9Z" fill="#1C1C1A"/>
<path d="M580.35 180.05L605.08 234.44H597.58L591.5 221.04H569.28L563.27 234.44H555.83L580.35 180.05ZM580.33 196.39L571.95 215.07H588.8L580.33 196.39Z" fill="#1C1C1A"/>
<path d="M613.61 182.061H624.96C630.61 182.061 635.2 183.461 638.75 186.271C642.3 189.081 644.07 192.681 644.07 197.061C644.07 200.571 642.92 203.661 640.63 206.351C638.33 209.031 634.75 210.931 629.89 212.021L645.1 234.431H636.89L622.36 212.891H620.76V234.431H613.61V182.061ZM620.76 188.391V206.641C631.31 206.861 636.59 203.801 636.59 197.471C636.59 195.251 635.97 193.431 634.74 192.021C633.51 190.611 631.86 189.651 629.81 189.141C627.76 188.631 624.74 188.381 620.77 188.381L620.76 188.391Z" fill="#1C1C1A"/>
<path d="M655.31 182.061H662.38V234.431H655.31V182.061Z" fill="#1C1C1A"/>
<path d="M694.28 180.05L719.01 234.44H711.51L705.43 221.04H683.21L677.2 234.44H669.76L694.28 180.05ZM694.26 196.39L685.88 215.07H702.73L694.26 196.39Z" fill="#1C1C1A"/>
<path d="M727.46 182.061H734.53V227.361H751.59V234.431H727.46V182.061Z" fill="#1C1C1A"/>
<path d="M782.89 180.46H794.36V213.47C794.36 216.54 795.21 219.01 796.91 220.87C798.61 222.73 800.84 223.67 803.61 223.67C806.79 223.67 809.26 222.73 811.01 220.85C812.76 218.97 813.64 216.32 813.64 212.89V180.45H825.07V215.39C825.07 218.46 824.27 221.65 822.69 224.95C821.1 228.25 818.65 230.78 815.35 232.53C812.05 234.28 808.35 235.16 804.27 235.16C796.87 235.16 791.46 233.1 788.03 228.97C784.6 224.85 782.89 220.51 782.89 215.96V180.44V180.46Z" fill="#1C1C1A"/>
<path d="M831.9 180.46H843.68L857.33 216.35L871 180.46H882.79L862.35 234.44H852.25L831.89 180.46H831.9Z" fill="#1C1C1A"/>
<path d="M890.03 180.46H908.49C913.45 180.46 917.45 181.91 920.49 184.8C923.53 187.69 925.05 191.49 925.05 196.21C925.05 199.31 924.3 202.25 922.81 205.03C921.32 207.81 919.06 209.89 916.05 211.26C913.04 212.63 910.46 213.34 908.32 213.4L901.58 213.56V234.44H890.03V180.46ZM901.41 190.16V203.97H905.93C907.88 203.97 909.54 203.27 910.92 201.87C912.3 200.47 913 198.81 913 196.9C913 194.71 912.22 193.01 910.66 191.8C909.1 190.59 906.88 189.99 904 189.99L901.41 190.15V190.16Z" fill="#1C1C1A"/>
<path d="M60.96 131.77C58.79 164.04 84.32 190.88 116.1 190.88C133.76 190.88 149.48 182.6 159.62 169.69C159.57 169.9 159.31 170.94 158.79 172.63C136.79 243.9 36.86 248.56 8.61001 179.53C3.06001 165.98 0.0100112 151.14 0.0100112 135.59C1.12087e-05 71.4802 51.97 19.4902 116.1 19.4902C168.39 19.4902 212.59 54.0402 227.11 101.56H159.65C148.9 87.8202 131.79 79.3002 112.76 80.4202C85.23 82.0402 62.8 104.26 60.96 131.77Z" fill="url(#paint0_linear_483_454)"/>
<g style="mix-blend-mode:overlay">
<path d="M60.96 131.77C58.79 164.04 84.32 190.88 116.1 190.88C133.76 190.88 149.48 182.6 159.62 169.69C159.57 169.9 159.31 170.94 158.79 172.63C136.79 243.9 36.86 248.56 8.61001 179.53C3.06001 165.98 0.0100112 151.14 0.0100112 135.59C1.12087e-05 71.4802 51.97 19.4902 116.1 19.4902C168.39 19.4902 212.59 54.0402 227.11 101.56H159.65C148.9 87.8202 131.79 79.3002 112.76 80.4202C85.23 82.0402 62.8 104.26 60.96 131.77Z" fill="url(#paint1_radial_483_454)"/>
</g>
<path d="M227.11 101.56H159.65C159.65 101.56 159.65 101.54 159.63 101.52C159.05 100.2 139.6 57.2002 86.12 58.3402C23.26 59.6902 0 135.59 0 135.59C0 71.4802 51.97 19.4902 116.1 19.4902C168.39 19.4902 212.59 54.0402 227.11 101.56Z" fill="url(#paint2_linear_483_454)"/>
<path d="M77.51 141.86V161.99C82.05 168.82 88.4 174.46 96.37 178.17C96.9 178.42 97.43 178.6 97.96 178.83V121.42L77.51 141.87V141.86Z" fill="#1C1C1A"/>
<path d="M102.3 132.15V180.4C109.11 182.49 116.05 182.91 122.75 181.84V111.71L102.3 132.16V132.15Z" fill="#1C1C1A"/>
<path d="M147.73 101.17L128.71 120.19V180.47C136.23 178.24 143.24 174.14 149.16 168.53V102.63C148.69 102.14 148.22 101.65 147.73 101.16V101.17Z" fill="#1C1C1A"/>
<path d="M238.91 167.29H163.38L204.25 128.34L238.91 167.29ZM171.24 174.54C171.24 174.54 156.85 259.65 58.17 233.97C46.72 230.99 33.91 224.44 21.54 216.22C21.54 216.22 31.4 232.19 50.87 243.78C94.76 269.91 176.92 290.51 230.1 174.53H171.24V174.54Z" fill="url(#paint3_linear_483_454)"/>
<path opacity="0.18" d="M101.22 262.16C100.61 262.23 100.03 262.3 99.47 262.36C141.92 269.84 193.05 255.35 230.11 174.53H171.25C171.25 174.53 177.75 253.59 101.22 262.15V262.16Z" fill="url(#paint4_linear_483_454)"/>
</g>
<defs>
<linearGradient id="paint0_linear_483_454" x1="1.12085e-05" y1="124.14" x2="227.11" y2="124.14" gradientUnits="userSpaceOnUse">
<stop stop-color="#91278B"/>
<stop offset="1" stop-color="#40113D"/>
</linearGradient>
<radialGradient id="paint1_radial_483_454" cx="0" cy="0" r="1" gradientUnits="userSpaceOnUse" gradientTransform="translate(113.56 124.14) scale(109.19 109.19)">
<stop stop-color="white"/>
<stop offset="1" stop-color="white" stop-opacity="0"/>
</radialGradient>
<linearGradient id="paint2_linear_483_454" x1="175.85" y1="148.77" x2="-2.75" y2="20.3902" gradientUnits="userSpaceOnUse">
<stop stop-color="#91278B"/>
<stop offset="1" stop-color="#40113D"/>
</linearGradient>
<linearGradient id="paint3_linear_483_454" x1="130.22" y1="314.83" x2="130.22" y2="97.4603" gradientUnits="userSpaceOnUse">
<stop stop-color="#FBC72F"/>
<stop offset="1" stop-color="#F28F1E"/>
</linearGradient>
<linearGradient id="paint4_linear_483_454" x1="99.47" y1="219.32" x2="230.1" y2="219.32" gradientUnits="userSpaceOnUse">
<stop stop-color="white"/>
<stop offset="1" stop-color="white" stop-opacity="0"/>
</linearGradient>
<clipPath id="clip0_483_454">
<rect width="925.05" height="284.11" fill="white"/>
</clipPath>
</defs>
</svg>
