<svg width="129" height="50" viewBox="0 0 129 50" fill="none" xmlns="http://www.w3.org/2000/svg">
<g clip-path="url(#clip0_311_2538)">
<path d="M62.3067 36.8105C62.8056 36.5699 63.3045 36.5699 63.8034 36.8105C63.9753 36.9344 64.2013 37.0094 64.4482 37.0094C64.9804 37.0094 65.4148 36.6594 65.4148 36.2314V30.4402C65.4148 30.0121 64.9794 29.6621 64.4482 29.6621C63.917 29.6621 63.4805 30.0121 63.4805 30.4402V34.7888C62.9035 35.8106 61.5453 35.8408 61.1182 34.7888V30.4402C61.1182 30.0121 60.6829 29.6621 60.1516 29.6621C59.6204 29.6621 59.1851 30.0121 59.1851 30.4402V34.7888C59.1851 34.8075 59.1851 34.8273 59.1871 34.8461C59.2778 36.6657 60.6474 37.4375 62.3077 36.8105H62.3067Z" fill="black"/>
<path d="M72.1527 36.2284V31.3309C72.1173 30.2966 71.0507 29.5311 69.5082 29.4978C68.2437 29.4717 67.4073 29.754 66.8636 30.2487C65.5168 31.4507 67.1594 32.1819 68.0052 31.3601C68.8999 30.5591 69.754 30.5133 70.1383 31.2997C70.5393 32.3517 69.2717 32.4569 68.4551 32.5621C66.5365 32.8975 65.8855 33.8391 65.8105 35.0556C65.8439 36.3628 66.9792 37.2138 68.8457 36.8888C69.4571 36.7732 69.8727 36.3128 70.7081 36.618C71.484 36.994 72.0257 36.7336 72.1506 36.2274L72.1527 36.2284ZM70.2414 34.6452C70.0769 35.2296 69.6956 35.6399 68.8363 35.6691C67.9166 35.5879 67.5531 35.016 67.952 34.3161C68.1604 34.0099 68.4551 33.7089 68.9405 33.587C69.9081 33.3933 70.3727 33.6359 70.2414 34.6452Z" fill="black"/>
<path d="M55.001 35.9364C55.5822 35.9302 56.0749 35.8146 56.48 35.6115C56.7665 35.8677 56.9102 36.2062 56.9102 36.627C56.8331 37.2405 56.354 37.7394 55.3864 37.7769C54.5042 37.8061 54.3698 37.0863 53.8625 36.7416C53.3595 36.1614 52.17 36.9093 52.6835 37.7477C53.1793 38.5914 54.0188 39.0612 55.3582 38.9841C57.0331 38.9966 58.5819 38.2144 58.5507 36.3958V30.5858C58.408 29.8942 57.9955 29.8078 57.5445 29.8099C57.205 29.8161 57.0414 29.9765 56.8862 30.1442C56.4373 29.839 55.8332 29.6849 55.0843 29.689C53.2407 29.7578 52.1283 31.1223 52.1085 32.7961C52.095 34.4761 53.223 35.9333 55.002 35.9364H55.001ZM54.2771 31.5639C54.8802 30.7421 55.8655 30.739 56.4675 31.5066C56.981 32.2034 57.0237 33.6314 56.505 34.1491C55.6259 34.8417 54.9156 34.773 54.2771 34.0137C53.8386 33.1971 53.8386 32.3805 54.2771 31.5639Z" fill="black"/>
<path d="M47.0171 35.0739H48.3399C48.7326 35.0885 49.1263 35.2031 49.4044 35.5624C49.5387 35.7926 49.6731 36.0228 49.8075 36.253C50.1626 37.0102 52.1083 36.7321 51.7635 35.7645C50.824 33.3106 49.8845 30.8566 48.945 28.4026C48.5524 27.3673 46.6348 27.4246 46.2994 28.4026C45.312 30.8566 44.3246 33.3106 43.3372 35.7645C43.0018 36.6749 44.6266 36.9821 45.1495 36.3395C45.3505 36.0905 45.5526 35.8405 45.7536 35.5916C46.0349 35.326 46.3921 35.1094 47.0192 35.0739H47.0171ZM46.413 32.6294C46.6317 31.9992 46.8515 31.3701 47.0702 30.7399C47.2254 30.2014 47.9462 30.1462 48.0836 30.7399C48.2753 31.342 48.4669 31.945 48.6586 32.5471C48.9055 33.396 48.3024 33.8428 47.5639 33.8063C46.6327 33.8522 46.2494 33.4595 46.414 32.6294H46.413Z" fill="black"/>
<path d="M114.649 35.2417C113.794 35.2417 113.095 35.9416 113.095 36.7957V39.659C112.485 39.4372 111.766 39.3268 110.944 39.3309C107.842 39.4476 105.971 41.7787 105.938 44.6378C105.914 47.5063 107.814 49.9967 110.806 50.0009C111.862 49.9905 112.745 49.7603 113.455 49.3593C113.741 49.702 114.171 49.9217 114.649 49.9217C115.504 49.9217 116.203 49.2218 116.203 48.3677V36.7968C116.203 35.9416 115.503 35.2427 114.649 35.2427V35.2417ZM113.095 46.9116C111.688 47.9823 110.627 47.9698 109.589 46.7147C108.852 45.32 108.852 43.9253 109.589 42.5307C110.592 41.1422 112.081 41.2183 113.095 42.488V46.9116Z" fill="black"/>
<path d="M122.302 39.1142C120.487 39.0767 119.286 39.4829 118.506 40.1922C116.572 41.9181 118.93 42.9681 120.145 41.7879C121.431 40.638 122.657 40.5724 123.209 41.7015C123.784 43.2118 121.965 43.3628 120.793 43.5138C118.039 43.995 117.105 45.347 116.997 47.0948C117.044 48.9717 118.675 50.1924 121.354 49.7258C122.231 49.5602 122.827 48.8988 124.028 49.3373C125.143 49.8768 125.92 49.5029 126.099 48.7769V41.7452C126.049 40.261 124.517 39.16 122.302 39.1142ZM123.354 46.5053C123.118 47.3437 122.57 47.9333 121.337 47.9749C120.017 47.8583 119.494 47.0365 120.067 46.0324C120.366 45.5928 120.789 45.1606 121.487 44.9866C122.875 44.7085 123.544 45.0575 123.354 46.5063V46.5053Z" fill="black"/>
<path d="M66.4289 39.1142C64.6134 39.0767 63.4124 39.4829 62.6323 40.1922C60.6981 41.9181 63.0562 42.9681 64.2717 41.7879C65.5571 40.638 66.783 40.5724 67.335 41.7015C67.91 43.2118 66.0914 43.3628 64.9196 43.5138C62.1657 43.995 61.2314 45.347 61.123 47.0948C61.171 48.9717 62.801 50.1924 65.48 49.7258C66.357 49.5602 66.9538 48.8988 68.1548 49.3373C69.2692 49.8768 70.0463 49.5029 70.2254 48.7769V41.7452C70.1754 40.261 68.6433 39.16 66.4289 39.1142ZM67.4819 46.5053C67.2455 47.3437 66.6976 47.9333 65.4644 47.9749C64.1447 47.8583 63.6218 47.0365 64.1947 46.0324C64.4936 45.5928 64.9165 45.1606 65.6143 44.9866C67.0028 44.7085 67.6715 45.0575 67.4819 46.5063V46.5053Z" fill="black"/>
<path d="M55.878 39.6601C55.1625 40.0049 54.0407 40.4881 53.3241 40.1434C52.5033 39.3101 51.2024 39.1112 49.7473 39.6601C49.0317 40.0049 48.3151 40.0049 47.5985 39.6601C47.3527 39.482 47.0277 39.3737 46.6736 39.3737C45.9101 39.3737 45.2852 39.8757 45.2852 40.4902V48.8041C45.2852 49.4187 45.9101 49.9207 46.6736 49.9207C47.4371 49.9207 48.062 49.4187 48.062 48.8041V42.5609C48.8744 41.1235 50.7649 41.0537 51.4159 42.4734V48.8041C51.4159 49.4187 52.0408 49.9207 52.8043 49.9207H52.8231H52.8418C53.6053 49.9207 54.2302 49.4176 54.2302 48.8041V42.5609C54.2302 42.5401 54.2302 42.5203 54.2282 42.4994C55.076 41.0933 56.98 41.0714 57.5841 42.5609V48.8041C57.5841 49.4187 58.2091 49.9207 58.9726 49.9207C59.736 49.9207 60.361 49.4176 60.361 48.8041V42.5609C60.361 42.5338 60.3599 42.5057 60.3568 42.4796C60.2266 39.8674 58.2601 38.7602 55.877 39.6601H55.878Z" fill="black"/>
<path d="M101.193 39.1142C99.3775 39.0767 98.1766 39.4829 97.3965 40.1922C95.4622 41.9181 97.8204 42.9681 99.0359 41.7879C100.321 40.638 101.547 40.5724 102.099 41.7015C102.674 43.2118 100.856 43.3628 99.6838 43.5138C96.9298 43.995 95.9955 45.347 95.8872 47.0948C95.9351 48.9717 97.5652 50.1924 100.244 49.7258C101.121 49.5602 101.718 48.8988 102.919 49.3373C104.033 49.8768 104.81 49.5029 104.99 48.7769V41.7452C104.94 40.261 103.407 39.16 101.193 39.1142ZM102.246 46.5053C102.01 47.3437 101.462 47.9333 100.229 47.9749C98.9088 47.8583 98.386 47.0365 98.9588 46.0324C99.2578 45.5928 99.6806 45.1606 100.378 44.9866C101.767 44.7085 102.436 45.0575 102.246 46.5063V46.5053Z" fill="black"/>
<path d="M89.1378 39.3521C88.3743 39.3521 87.7494 39.8551 87.7494 40.4686V46.7119C86.9203 48.1784 84.9704 48.2221 84.3569 46.7119V40.4686C84.3569 39.8541 83.732 39.3521 82.9685 39.3521C82.205 39.3521 81.5801 39.8551 81.5801 40.4686V46.7119C81.5801 46.7389 81.5811 46.7671 81.5842 46.7931C81.7144 49.4054 83.6809 50.5126 86.0641 49.6127C86.7796 49.2679 87.4963 49.2679 88.2129 49.6127C88.4587 49.7897 88.7836 49.8991 89.1378 49.8991C89.9013 49.8991 90.5262 49.397 90.5262 48.7825V40.4686C90.5262 39.8541 89.9013 39.3521 89.1378 39.3521Z" fill="black"/>
<path d="M78.8823 46.7222C77.3439 47.9336 76.2023 47.9648 75.0858 46.6358C74.3192 45.2078 74.3192 43.7787 75.0858 42.3507C76.1409 40.9123 77.7126 41.0081 78.7678 42.3507C79.276 43.0413 81.0592 41.8237 80.4937 40.6832C79.7073 39.6093 78.3563 39.0635 76.4961 39.0729C73.2703 39.1927 71.3236 41.58 71.2903 44.5089C71.2663 47.4472 73.2411 49.997 76.3523 50.0022C78.2501 49.9824 79.6114 49.2929 80.4364 48.1898C81.3998 47.1399 79.6552 46.1525 78.8834 46.7233L78.8823 46.7222Z" fill="black"/>
<path d="M39.5564 39.6601C38.8408 40.0049 38.1242 40.0049 37.4076 39.6601C37.1618 39.482 36.8368 39.3737 36.4827 39.3737C35.7192 39.3737 35.0942 39.8757 35.0942 40.4902V48.8041C35.0942 49.4187 35.7192 49.9207 36.4827 49.9207C37.2461 49.9207 37.8711 49.4187 37.8711 48.8041V42.5609C38.7002 41.0943 40.65 41.0506 41.2635 42.5609V48.8041C41.2635 49.4187 41.8885 49.9207 42.6519 49.9207C43.4154 49.9207 44.0404 49.4176 44.0404 48.8041V42.5609C44.0404 42.5338 44.0393 42.5057 44.0362 42.4796C43.906 39.8674 41.9395 38.7602 39.5564 39.6601Z" fill="black"/>
<path d="M93.4686 35.2417C92.6134 35.2417 91.9146 35.9416 91.9146 36.7957V48.3666C91.9146 49.2218 92.6134 49.9207 93.4686 49.9207C94.3237 49.9207 95.0226 49.2207 95.0226 48.3666V36.7957C95.0226 35.9406 94.3227 35.2417 93.4686 35.2417Z" fill="black"/>
<path d="M35.9439 38.2978L35.947 38.2926L35.9533 38.2822C36.123 37.9885 36.2616 37.6802 36.3688 37.3604C36.8115 37.4896 37.2729 37.5552 37.7396 37.5594H37.7489C40.4904 37.5687 42.6798 35.4825 42.7069 32.7244V32.7046C42.7069 31.5276 42.3006 30.4193 41.5924 29.5434C45.2046 29.107 48.0231 26.2634 48.0554 22.4627V22.4533C48.0679 18.6609 45.3452 15.6122 41.6163 15.3143C42.0715 14.3342 42.1736 13.2124 41.8746 12.1229L41.8715 12.1136C41.3434 10.2262 39.7956 8.93363 37.9843 8.72011C37.9968 8.47221 37.9947 8.22223 37.977 7.97225C37.8614 6.34947 37.1063 4.86001 35.8751 3.79864L35.8699 3.79343L31.3651 0L27.7081 4.2611C26.3155 5.88493 25.7468 8.02225 26.3655 10.0877C25.2364 9.79814 24.0605 9.64503 22.8596 9.6419H22.8398L9.1909 9.76689V22.8106C9.1909 24.3365 9.40442 25.8406 9.83043 27.2717C9.49088 27.1332 9.13466 27.0269 8.76594 26.955C7.27856 26.6676 5.75681 26.9884 4.50483 27.8393L4.49858 27.8435L0 30.9808L2.95184 35.2981C4.09653 36.9719 5.92555 38.0052 7.97434 37.9073C8.69928 37.8729 9.40442 37.6948 10.0565 37.3906C10.171 38.5905 10.7543 39.7488 11.7667 40.5987L11.774 40.6049C12.8739 41.5184 14.2624 41.8726 15.6049 41.6403C15.5841 41.8559 15.5737 42.0725 15.5716 42.2892V42.2996C15.5581 46.268 18.5422 49.423 22.5398 49.4615H22.5596C26.5832 49.4615 29.8152 46.2389 29.8256 42.2142V42.2027L29.8079 40.2956C30.0694 40.407 30.336 40.4945 30.6037 40.5591V48.3668C30.6037 49.2219 31.3036 49.9208 32.1577 49.9208C33.0118 49.9208 33.7118 49.2209 33.7118 48.3668V40.2914C34.6086 39.8977 35.396 39.2249 35.9428 38.2978H35.9439ZM26.8426 10.0523C26.2207 8.1087 26.7499 6.09428 28.0622 4.56524L31.4182 0.654112L35.5668 4.14861L35.57 4.15174C36.9417 5.33497 37.6031 7.02129 37.5177 8.68886C37.2604 8.68469 36.999 8.7024 36.7355 8.74302C36.8428 7.29939 36.3022 5.80993 35.0627 4.74023L31.5067 1.74569L28.6528 5.07145C27.1696 6.79943 27.028 8.92321 27.9039 10.5783C27.5758 10.4512 27.2425 10.3377 26.905 10.2366C26.8832 10.1762 26.8623 10.1148 26.8426 10.0523ZM32.7546 13.7103C32.4713 13.4291 32.1775 13.1614 31.8723 12.9073L31.8234 11.2532L29.61 9.35964L31.8046 10.6418L31.7484 8.7399L30.2079 7.65665L31.7349 8.26702L31.5984 3.66636L31.9109 7.02025L33.1243 6.17136L31.9567 7.50562L32.189 9.98979L34.2076 8.66699L32.2421 10.5627L32.4827 13.1447C32.5744 13.1374 32.665 13.126 32.7556 13.1124C32.7421 13.3093 32.7421 13.5093 32.7546 13.7103ZM7.9535 37.4729C6.0547 37.5646 4.37047 36.6022 3.31118 35.0533L0.602033 31.0912L4.74544 28.2008L4.74856 28.1987C6.37134 27.0957 8.37326 27.0207 10.0054 27.8279C10.1356 28.2101 10.2814 28.5851 10.4429 28.9538C8.97425 27.8164 6.87234 27.63 5.15582 28.7976L1.60403 31.2745L3.90801 34.644C5.461 36.9146 8.15661 37.3146 10.1283 36.0262C10.0679 36.3209 10.0367 36.6188 10.0346 36.9167C9.38984 37.2459 8.68261 37.4375 7.9535 37.4719V37.4729ZM11.4855 33.5774L10.2346 33.2816L7.99621 34.8158L9.6794 33.1504L7.95455 32.7421L6.60778 33.867L7.52541 32.641L3.35389 31.6547L6.44634 32.1817L5.9745 30.886L6.89422 32.2588L9.18569 32.6494L8.48263 30.5141L9.71377 32.7389L12.023 33.1327C11.8344 33.2681 11.6542 33.416 11.4855 33.5785V33.5774ZM12.1167 31.8182C12.3386 32.1098 12.5719 32.3942 12.8187 32.6692C12.5698 32.7827 12.3323 32.9181 12.1063 33.0733C12.1729 32.6567 12.175 32.2338 12.1167 31.8182ZM29.6236 39.3353L29.6184 39.3321C29.4017 39.204 29.2017 39.0613 29.0174 38.9072L29.0486 42.2048V42.2131C29.0392 45.816 26.1489 48.6845 22.5596 48.6845H22.5471C18.9922 48.6501 16.3372 45.8597 16.3486 42.3017V42.2954C16.3549 41.6632 16.4455 41.0612 16.6122 40.4966C15.2331 41.1893 13.5593 41.0768 12.2709 40.0071L12.2667 40.0029C11.3147 39.203 10.8147 38.0906 10.8106 36.9667C10.8095 36.7792 10.8231 36.5907 10.8512 36.4032C10.9501 35.7168 11.2376 35.045 11.7251 34.4575L11.7282 34.4534L11.7324 34.4492C12.0282 34.0992 12.3698 33.8118 12.7416 33.5878C12.9021 33.491 13.0687 33.4066 13.2395 33.3337C13.3093 32.9368 13.3343 32.5265 13.3103 32.1057C13.3093 32.0859 13.3083 32.0661 13.3062 32.0463C13.1229 31.8369 12.9468 31.6234 12.7802 31.4036C12.1104 30.5339 11.5584 29.584 11.1262 28.5768C11.0157 28.3206 10.9126 28.0591 10.8168 27.7946C10.2544 26.228 9.96792 24.5417 9.96792 22.8106V10.5377L22.8418 10.4189H22.8575C24.2042 10.422 25.501 10.622 26.7207 10.9918C26.9384 11.0574 27.154 11.1282 27.3665 11.2053C27.8956 11.3949 28.4101 11.6178 28.9049 11.8709C28.934 11.8969 28.9632 11.923 28.9924 11.949C29.4965 12.3844 30.034 12.6948 30.5818 12.8927C31.0297 13.2124 31.4568 13.5603 31.8598 13.9332C32.0244 14.0853 32.1848 14.2405 32.3411 14.4009C32.7608 14.3842 33.1827 14.3196 33.6034 14.204C33.5712 14.0488 33.5493 13.8936 33.5368 13.7395C33.5128 13.4624 33.518 13.1885 33.5514 12.9198C33.7399 11.3907 34.819 10.0575 36.397 9.61066L36.4022 9.60857H36.4084C36.474 9.58983 36.5386 9.5742 36.6042 9.56066C36.8792 9.49921 37.1532 9.46796 37.4219 9.46588C37.5812 9.46484 37.7385 9.47317 37.8937 9.49192C39.3988 9.66899 40.6799 10.7418 41.1226 12.3229V12.3292C41.5205 13.7739 41.0705 15.1852 40.0894 16.1393C40.4081 16.0924 40.7341 16.0674 41.0664 16.0674H41.0778C44.6327 16.1018 47.2888 18.8922 47.2763 22.4502V22.4565C47.2461 26.152 44.2724 28.8247 40.6174 28.8247H39.403C40.8966 29.4788 41.9278 30.9672 41.9278 32.7046V32.7171C41.9059 35.0377 40.0748 36.7896 37.751 36.7824H37.7448C37.0365 36.7761 36.3834 36.6032 35.8147 36.3022C35.747 36.8469 35.571 37.3875 35.2794 37.8927L35.2762 37.8979L35.2731 37.9031C34.8763 38.576 34.3336 39.0894 33.7118 39.4321V38.1635C35.145 37.1656 34.8877 34.8617 34.0461 33.9076C33.417 33.1952 30.512 31.9244 30.512 31.9244C30.512 31.9244 28.9153 34.3867 28.7559 35.846C28.6403 36.9 29.2392 38.0604 30.6027 38.4864V39.7581C30.2694 39.6602 29.9402 39.5207 29.6225 39.3353H29.6236Z" fill="black"/>
<path d="M126.94 34.9033C125.8 34.9033 124.875 35.8282 124.875 36.9688C124.875 38.1093 125.8 39.0342 126.94 39.0342C128.081 39.0342 129.006 38.1093 129.006 36.9688C129.006 35.8282 128.081 34.9033 126.94 34.9033ZM128.152 38.1655L127.873 37.7208C127.754 37.5291 127.66 37.3958 127.59 37.3208C127.52 37.2458 127.431 37.176 127.324 37.1136C127.539 37.0823 127.703 37.0063 127.811 36.8865C127.92 36.7657 127.974 36.6126 127.974 36.4282C127.974 36.2824 127.938 36.1532 127.866 36.0397C127.795 35.9262 127.699 35.848 127.58 35.8032C127.46 35.7595 127.27 35.7366 127.006 35.7366H125.958V38.201H126.456V37.1729H126.557C126.672 37.1729 126.755 37.1813 126.807 37.2C126.86 37.2188 126.91 37.2531 126.957 37.3031C127.004 37.3531 127.091 37.4729 127.22 37.6645L127.579 38.201H128.116C127.81 38.4926 127.396 38.6728 126.94 38.6728C126 38.6728 125.237 37.9093 125.237 36.9688C125.237 36.0282 126 35.2658 126.94 35.2658C127.881 35.2658 128.643 36.0282 128.643 36.9688C128.643 37.4354 128.456 37.8583 128.152 38.1655ZM127.272 36.749C127.212 36.7688 127.062 36.7792 126.824 36.7792H126.456V36.1543H126.845C127.046 36.1543 127.168 36.1574 127.207 36.1626C127.288 36.1761 127.351 36.2084 127.395 36.2595C127.439 36.3105 127.461 36.3772 127.461 36.4594C127.461 36.5334 127.445 36.5948 127.411 36.6448C127.377 36.6938 127.331 36.7292 127.272 36.749Z" fill="black"/>
<path d="M27.8998 13.98C26.6697 13.3634 25.3084 13.0541 23.9335 13.0166L12.2959 12.7041V23.5855C12.2959 25.4999 12.8042 27.3914 13.8301 29.0069C15.3081 31.3338 18.1902 33.7378 23.7866 33.7024C33.6285 33.6399 36.5501 18.3172 27.8998 13.98ZM24.6251 22.0231C25.2386 22.0231 25.7364 22.521 25.7364 23.1345C25.7364 23.748 25.2386 24.2458 24.6251 24.2458C24.0116 24.2458 23.5127 23.749 23.5127 23.1345C23.5127 22.5199 24.0105 22.0231 24.6251 22.0231ZM22.0253 23.0668C22.6398 23.0668 23.1367 23.5636 23.1367 24.1781C23.1367 24.7927 22.6398 25.2895 22.0253 25.2895C21.4108 25.2895 20.9139 24.7916 20.9139 24.1781C20.9139 23.5647 21.4118 23.0668 22.0253 23.0668ZM24.5803 30.588C23.771 30.788 23.0242 30.8765 22.3388 30.8765C16.8882 30.8776 15.2269 25.2728 15.2092 25.2083L16.0862 24.9593C16.1518 25.1885 17.584 29.9631 22.3419 29.9631C22.9586 29.9631 23.6293 29.8839 24.3616 29.7027C26.2041 29.2486 27.5415 28.3174 28.3373 26.9342C29.933 24.1584 28.8664 20.4285 28.856 20.391L29.7299 20.1326C29.7799 20.3003 30.9204 24.2667 29.131 27.3841C28.2071 28.9934 26.676 30.0724 24.5803 30.588Z" fill="black"/>
<path d="M34.311 13.9615C34.5381 15.7885 35.5744 17.7883 35.5744 17.7883C35.5744 17.7883 36.3275 17.3102 38.5159 16.5342C40.7042 15.7593 41.2521 12.795 39.5647 11.2909C39.02 10.8056 38.319 10.566 37.6055 10.5347C37.4368 10.5254 37.267 10.5295 37.0993 10.5452C36.766 10.5743 36.439 10.6462 36.1317 10.7566C35.2505 11.0743 34.536 11.7107 34.3402 12.5648C34.3329 12.595 34.3266 12.6273 34.3204 12.6585C34.2735 12.9137 34.26 13.1876 34.2714 13.471C34.2766 13.6324 34.2902 13.7959 34.311 13.9615Z" fill="black"/>
<path d="M36.6003 21.9605C36.7377 23.2375 36.9648 27.7517 36.9648 27.7517C38.3282 27.7246 40.676 27.5528 42.2206 27.2726C45.1443 26.7435 47.0765 23.9072 46.1536 21.0825C45.6995 19.694 44.4444 18.2275 42.8018 17.9025C38.6522 17.0818 36.4638 20.6835 36.6003 21.9605Z" fill="black"/>
<path d="M34.5253 29.359C34.5253 29.359 34.0805 34.2502 36.6626 34.8825C39.2447 35.5147 41.2289 33.343 40.3571 31.0349C39.4843 28.7267 36.5605 29.2048 34.5253 29.359Z" fill="black"/>
<path d="M22.3963 37.7385C20.0246 37.7833 15.6812 40.8164 18.5205 45.0567C21.3588 49.298 26.4199 46.4586 26.899 44.4755C27.3781 42.4923 26.9844 37.5156 26.9844 37.5156C26.9844 37.5156 24.7669 37.6927 22.3963 37.7385Z" fill="black"/>
<path d="M15.3738 34.364C14.4624 34.0057 13.4687 34.2619 12.7219 34.8577C12.2813 35.2097 11.9261 35.6805 11.7241 36.2138C11.5918 36.5638 11.5251 36.9398 11.5428 37.3283C11.6345 39.3115 13.3677 40.452 15.0092 40.2687C16.6508 40.0864 18.8391 36.6669 18.8391 36.6669C18.8391 36.6669 17.1747 35.0712 15.3738 34.364Z" fill="black"/>
</g>
<defs>
<clipPath id="clip0_311_2538">
<rect width="129.006" height="50" fill="white"/>
</clipPath>
</defs>
</svg>
